<svg width="15" height="15" viewBox="0 0 15 15" fill="none" xmlns="http://www.w3.org/2000/svg">
<path d="M2.01834 5.86333C2.74815 5.54018 3.63814 5.24709 4.52463 5.03795L4.55888 5.02976C6.27585 4.61229 9.3971 4.45971 10.2101 4.45071C10.1155 4.02483 10.0114 3.65207 9.95019 3.44316C9.85279 3.46057 9.74072 3.4691 9.60907 3.4691C9.11674 3.4691 8.52188 3.34258 8.35131 3.30366C7.92099 3.23608 7.04566 2.87323 6.34247 2.58172C6.01113 2.44438 5.69835 2.31467 5.59527 2.28758C5.12683 2.14717 4.63153 2.07617 4.12178 2.07617C3.05801 2.07617 2.18177 2.3778 1.78001 2.54371C0.692585 3.796 0.0268272 5.41661 0 7.19173C0.440334 6.70814 1.11474 6.26349 2.01839 5.86341L2.01834 5.86333Z" fill="#39AED0"/>
<path d="M10.6422 3.42211C10.7275 3.70077 10.8152 4.01948 10.9228 4.44082C12.8304 4.46528 13.8537 4.77979 14.3885 5.05662C14.0311 3.96145 13.4204 2.97951 12.6235 2.17871C12.5738 2.44894 12.4598 2.68094 12.2792 2.86937C11.8513 3.3162 11.1601 3.41792 10.6421 3.42214L10.6422 3.42211Z" fill="#39AED0"/>
<path d="M5.70034 9.81144C6.07059 9.4074 7.54909 7.87714 7.82409 7.60211C8.55536 6.83965 9.46291 6.38201 10.4503 6.27712C10.418 5.63082 10.354 5.23179 10.3298 5.09766C6.98237 5.1517 4.33315 5.94794 4.30693 5.95616C1.77813 6.6269 0.615496 7.87135 0.120605 8.6279C0.392659 10.0971 1.10745 11.4126 2.1249 12.4329C3.23859 11.9789 5.37096 10.1574 5.70041 9.81138L5.70034 9.81144Z" fill="#39AED0"/>
<path d="M6.29638 1.6356C7.96852 2.52687 9.12547 2.7624 9.5037 2.7624C9.62522 2.76229 9.68052 2.74625 9.7026 2.73714C9.70009 2.72406 9.69406 2.70017 9.67995 2.65693C9.6729 2.63576 9.66653 2.61551 9.66152 2.59708C8.93241 0.670847 7.69978 0.114787 7.38211 0.000341348C7.37847 0.000341348 7.37494 0 7.3713 0C5.86094 0 4.4573 0.450354 3.28809 1.22179C3.5243 1.18868 3.76917 1.17127 4.02165 1.17127C5.05195 1.1715 5.94652 1.44901 6.29652 1.6356L6.29638 1.6356Z" fill="#39AED0"/>
<path d="M9.93892 11.2818C10.4627 9.63217 10.5162 7.7293 10.4604 7.37888C10.4322 7.20218 10.351 7.1875 10.2633 7.1875C10.0986 7.1875 9.87395 7.28296 9.72534 7.346C9.65115 7.37763 9.59244 7.40244 9.54328 7.41632C8.4041 7.89568 6.97486 9.49069 6.20692 10.3472C6.035 10.5391 5.89994 10.6896 5.80105 10.7915C4.4584 12.2064 3.5849 12.8857 3.02441 13.2007C4.24358 14.0835 5.74576 14.6058 7.37182 14.6058C7.37433 14.6058 7.3766 14.6056 7.37899 14.6056C8.46117 14.0936 9.30193 13.0011 9.93888 11.2818L9.93892 11.2818Z" fill="#39AED0"/>
<path d="M11.0483 5.10982C11.0849 5.37346 11.1063 5.76486 11.125 6.1458L11.1309 6.26232C12.686 6.29281 13.2956 7.41766 13.4973 7.78963L13.5154 7.82286C13.9797 8.67075 13.9284 9.9919 13.8337 10.8222C14.4146 9.77836 14.7459 8.5792 14.7459 7.30321C14.7459 6.91577 14.715 6.53573 14.6563 6.16481C13.6206 5.21266 11.9232 5.10742 11.2293 5.10742C11.1607 5.10742 11.0999 5.10833 11.0484 5.10981L11.0483 5.10982Z" fill="#39AED0"/>
<path d="M12.7901 8.10574C12.3873 7.40779 12.0342 7.1932 11.5606 7.05837C11.5067 7.04301 11.4578 7.03516 11.4147 7.03516C11.1886 7.03516 11.1728 7.28866 11.1721 7.29936C11.0584 10.4213 10.8229 11.2267 10.651 11.8148L10.6212 11.9175C10.3801 12.7576 9.98307 13.5934 9.49756 14.2954C10.9149 13.8733 12.1528 13.0413 13.0696 11.9374C13.5409 10.1232 13.1244 8.68521 12.79 8.10556L12.7901 8.10574Z" fill="#39AED0"/>
<path d="M10.5986 2.74073C10.6136 2.74198 10.6281 2.74335 10.6423 2.74482C11.168 2.70352 11.5513 2.5465 11.7728 2.2781C12.0125 1.98796 11.9789 1.6507 11.9783 1.6473C11.9765 1.63251 11.9771 1.61749 11.979 1.60292C11.1118 0.914415 10.0844 0.416524 8.96045 0.171875C9.68353 0.929795 10.1643 2.1436 10.2782 2.45015C10.3988 2.72346 10.4913 2.73142 10.5986 2.74075L10.5986 2.74073Z" fill="#39AED0"/>
</svg>
