<svg width="15" height="15" viewBox="0 0 15 15" fill="none" xmlns="http://www.w3.org/2000/svg">
<path d="M7.5 0C3.3578 0 0 3.35792 0 7.5C0 11.6423 3.3578 15 7.5 15C11.6422 15 15 11.6423 15 7.5C15 3.35792 11.6422 0 7.5 0ZM7.5 11.25C6.98221 11.25 6.5625 10.8305 6.5625 10.3125C6.5625 9.79477 6.98221 9.375 7.5 9.375C8.01779 9.375 8.4375 9.79477 8.4375 10.3125C8.4375 10.8305 8.01779 11.25 7.5 11.25ZM8.21596 7.35855C8.0681 7.41943 7.96875 7.58561 7.96875 7.7719V7.96875C7.96875 8.22785 7.7591 8.4375 7.5 8.4375C7.2409 8.4375 7.03125 8.22785 7.03125 7.96875V7.7719C7.03125 7.20199 7.3558 6.69938 7.85798 6.49198C8.26814 6.32215 8.50022 5.89459 8.42194 5.45147C8.3574 5.08251 8.04246 4.76757 7.67396 4.70303C7.38832 4.65267 7.11319 4.72547 6.8976 4.90673C6.68473 5.08576 6.5625 5.34759 6.5625 5.625C6.5625 5.8841 6.35285 6.09375 6.09375 6.09375C5.83465 6.09375 5.625 5.8841 5.625 5.625C5.625 5.06974 5.86898 4.54605 6.2947 4.18854C6.71997 3.83147 7.28071 3.68271 7.83598 3.77977C8.59222 3.91251 9.21293 4.53325 9.34567 5.28946C9.49998 6.16837 9.0358 7.01936 8.21596 7.35855Z" fill="#787878"/>
</svg>
