<svg width="12" height="11" viewBox="0 0 12 11" fill="none" xmlns="http://www.w3.org/2000/svg">
<path d="M2.4749 0.588863C2.06151 1.08691 1.51757 1.88964 1.08787 2.62793C0.761506 3.19043 0.00543933 4.70215 0 4.7959C0 4.82519 0.0543933 4.84277 0.125105 4.84277C0.337239 4.84277 0.386193 4.93066 0.494979 5.51074C0.870293 7.49707 1.71339 9.0791 2.79038 9.8291C3.42134 10.2686 3.36695 10.2627 6.22803 10.2627C8.70837 10.2627 8.7954 10.2568 9.08912 10.1396C9.92134 9.7998 10.6992 8.93847 11.2377 7.7666C11.5477 7.09277 11.5477 7.10449 11.3682 6.85254C11.2866 6.72949 11.118 6.51855 10.9983 6.37793L10.7808 6.13183H8.70293C7.4954 6.13183 6.58703 6.15527 6.53264 6.19043C6.47824 6.21972 6.39121 6.36621 6.33682 6.51269C6.28787 6.66504 6.2226 6.76464 6.20084 6.73535C6.07029 6.59472 5.60251 5.03613 5.60251 4.74902C5.60251 4.708 5.67866 4.62597 5.77113 4.5791C5.96695 4.46777 6.01046 4.55566 5.31423 3.63574C4.81925 2.97949 4.36234 2.25879 3.86736 1.37402C3.60084 0.89941 3.32343 0.583004 2.9318 0.307613L2.78494 0.208004L2.4749 0.588863Z" fill="#808080"/>
</svg>
