<svg width="15" height="15" viewBox="0 0 15 15" fill="none" xmlns="http://www.w3.org/2000/svg">
<path fill-rule="evenodd" clip-rule="evenodd" d="M12.7849 13.013C9.97912 15.6929 5.53213 15.5908 2.85225 12.785C0.172384 9.97921 0.274465 5.53221 3.08028 2.85233C5.88609 0.17246 10.3331 0.274553 13.013 3.08036C15.6929 5.88618 15.5907 10.3332 12.7849 13.013ZM5.47794 6.63409C5.14296 6.28337 5.15571 5.7275 5.50645 5.39251C5.85717 5.05753 6.41305 5.07029 6.74803 5.42101L7.96112 6.6911L9.23121 5.47802C9.58193 5.14304 10.1378 5.15579 10.4728 5.50652C10.8078 5.85726 10.795 6.41313 10.4443 6.74811L9.1742 7.96119L10.3873 9.23128C10.7223 9.58202 10.7095 10.1379 10.3588 10.4729C10.008 10.8079 9.45218 10.7951 9.11719 10.4444L7.90411 9.17427L6.63402 10.3874C6.28328 10.7223 5.72743 10.7096 5.39243 10.3589C5.05745 10.0081 5.0702 9.45226 5.42094 9.11727L6.69103 7.90418L5.47794 6.63409Z" fill="#F5F5F5"/>
</svg>
