<svg width="78" height="96" viewBox="0 0 78 96" fill="none" xmlns="http://www.w3.org/2000/svg">
<path d="M59.5295 0.0388184C57.2229 0.574028 56.6667 0.768654 55.0309 1.53093C53.7058 2.16345 51.5301 3.70422 50.6467 4.62868C49.0926 6.28297 47.375 9.02392 47.0969 10.3376C47.0314 10.6458 46.9169 10.9539 46.8515 11.0512C46.6552 11.2945 46.3444 12.7055 46.1644 14.1814C46.0335 15.1545 46.0499 16.6791 46.1808 19.5336C46.2953 21.7393 46.4425 24.983 46.5243 26.7508C46.6061 28.5186 46.737 30.5946 46.8351 31.3731C46.9169 32.1516 47.0478 34.6006 47.0969 36.8388C47.1459 39.0607 47.2604 41.6881 47.3586 42.6775C47.5385 44.8021 47.8821 51.5004 47.8984 53.5277C47.9148 54.4197 47.8494 55.0036 47.7348 55.036C47.6367 55.0685 46.6061 54.0143 45.4446 52.7168C44.2831 51.4031 43.2526 50.2516 43.1708 50.1542C43.0726 50.0569 42.271 49.1325 41.3713 48.1107C40.4716 47.0889 39.67 46.1645 39.5718 46.0672C39.49 45.9699 38.8684 45.2887 38.1977 44.5588C37.5433 43.829 36.8399 43.0343 36.66 42.791C36.4637 42.5477 36.2346 42.272 36.1365 42.1747C34.9587 40.8934 33.4864 39.2554 33.2246 38.8986C31.327 36.482 29.6911 35.2332 27.7117 34.7304C24.2928 33.8546 20.2685 35.5251 18.9434 38.3796C18.878 38.5093 18.7471 38.7364 18.6326 38.8661C18.5345 38.9959 18.3054 39.6608 18.1419 40.3582C17.8474 41.5584 17.8474 41.8828 18.1091 50.9814C18.4527 62.1884 18.4854 69.7625 18.1909 69.9409C18.0764 70.0058 17.9292 69.9409 17.831 69.7787C17.6675 69.503 16.6859 68.3515 16.097 67.7352C15.9661 67.5892 15.3445 66.908 14.7065 66.1944C13.7414 65.1078 12.9071 64.1833 12.0891 63.2913C11.991 63.194 11.3693 62.4966 10.6986 61.7343C7.99943 58.669 5.72556 56.2038 5.2348 55.847C4.9567 55.6361 4.35143 55.3604 3.89338 55.2469C2.69919 54.9387 1.5868 55.3442 0.670709 56.4146C0.0490763 57.1445 0.0163588 57.2418 0 58.3122V59.4313L2.11028 62.5615C3.27175 64.2969 4.26964 65.7403 4.31871 65.789C4.36779 65.8376 4.4823 65.9998 4.56409 66.1458C4.79312 66.535 6.67437 69.2597 6.77252 69.3571C6.8216 69.4057 7.47595 70.3464 8.24481 71.4655C8.99732 72.5845 10.2242 74.3524 10.944 75.4066C11.6638 76.4608 12.3672 77.4988 12.4981 77.7096C12.629 77.9205 13.1852 78.7314 13.725 79.4937C14.2648 80.2722 14.7883 81.0182 14.8701 81.1642C14.9683 81.3101 15.23 81.6994 15.459 82.0075C15.688 82.3157 15.9334 82.7049 15.9825 82.8509C16.0479 83.0131 16.1625 83.1428 16.2606 83.1428C16.3424 83.1428 16.4242 83.2239 16.4242 83.3213C16.4242 83.4186 16.6205 83.7754 16.8822 84.0997C17.1276 84.4241 17.4057 84.8134 17.4875 84.9593C18.3709 86.4028 20.3503 89.0788 20.8247 89.4519C21.9862 90.3601 22.5751 90.5223 24.44 90.5061C26.2231 90.4899 26.5666 90.3926 27.8099 89.5168C29.0859 88.6085 30.002 86.3703 30.002 84.116C30.0183 83.3537 30.1165 82.1535 30.2473 81.4399C30.3782 80.7263 30.4927 79.299 30.4927 78.2773C30.4927 77.2555 30.6072 75.6823 30.7381 74.8065C30.869 73.9145 30.9835 72.6981 30.9835 72.098C30.9835 71.4979 31.098 70.4275 31.2289 69.7301C31.3597 69.0327 31.4742 67.719 31.4742 66.8107C31.4742 65.0753 31.556 64.6537 31.8669 64.6537C32.0795 64.6537 32.7829 65.3186 32.7829 65.5132C32.7829 65.5781 33.2083 66.2106 33.7318 66.908C34.2389 67.6217 35.0405 68.7245 35.4821 69.3571C35.9402 69.9896 36.8563 71.2871 37.527 72.2115C38.1977 73.1522 39.1956 74.5308 39.7354 75.2931C40.2753 76.0553 41.1423 77.2555 41.6657 77.9691C42.1729 78.6665 42.5982 79.2828 42.5982 79.3315C42.5982 79.3801 43.0562 80.0451 43.6124 80.7912C44.185 81.5534 44.9702 82.6401 45.3792 83.2239C45.7882 83.8078 46.2462 84.4566 46.3934 84.6512C46.8842 85.2513 46.9169 85.3161 47.375 85.9811C47.604 86.3379 48.1765 87.1326 48.6346 87.7651C49.0763 88.3815 49.9269 89.5978 50.5158 90.4412C51.1048 91.2846 51.8736 92.2739 52.2008 92.6469C52.8551 93.3281 54.2456 94.4959 54.4419 94.4959C54.491 94.4959 54.8182 94.658 55.1617 94.8689C56.5849 95.7447 59.0387 96.1664 61.4435 95.9393C63.7664 95.7285 65.6804 94.8689 67.4472 93.2632C68.0524 92.7118 68.6741 91.9982 68.854 91.6738C69.034 91.3495 69.2302 91.09 69.2957 91.09C69.4266 91.09 70.0809 89.6789 70.0809 89.387C70.0809 89.2735 70.1791 89.0951 70.3099 88.9978C70.5717 88.7869 70.6535 88.2193 70.8988 85.2513C70.997 84.1322 71.1769 82.6239 71.3078 81.894C71.4387 81.1642 71.5532 80.1424 71.5532 79.6234C71.5532 79.1044 71.6677 78.1637 71.7986 77.5474C71.9294 76.9149 72.044 75.7796 72.044 75.0011C72.044 74.2388 72.1585 73.0225 72.2893 72.3251C72.4202 71.6277 72.5347 70.6221 72.5347 70.0869C72.5347 69.5517 72.6165 68.8218 72.7147 68.465C72.8128 68.1082 72.9437 66.9729 73.0255 65.9511C73.2054 63.3562 73.4999 60.5666 73.7126 59.2204C73.8107 58.5879 73.9416 57.3877 74.007 56.5444C74.2197 53.7548 74.5141 50.9652 74.7595 49.4082C74.8904 48.5648 74.9885 47.462 74.9885 46.9754C74.9885 46.4888 75.1031 45.6455 75.2339 45.1103C75.3648 44.5751 75.4793 43.4722 75.4793 42.6775C75.4957 41.8666 75.5611 40.8123 75.6429 40.3258C75.7247 39.8392 75.8719 38.5904 75.9537 37.5686C76.0519 36.5469 76.1991 35.444 76.2972 35.1358C76.379 34.8277 76.4608 34.1627 76.4608 33.6762C76.4608 32.7517 76.8207 28.989 77.1315 26.8644C77.2297 26.1994 77.3442 25.2749 77.3769 24.837C77.4096 24.3829 77.5732 23.0692 77.7204 21.9177C77.884 20.5878 77.9985 18.5118 77.9985 16.3223C78.0149 12.1541 77.9168 11.6838 76.4445 8.61845C75.6102 6.88306 75.0703 6.15322 73.4508 4.54758C71.1933 2.32564 69.6065 1.40118 66.3184 0.39563C65.4841 0.152351 64.6662 0.0550385 62.5559 0.0225983C61.0672 -0.00984192 59.7095 -0.00983429 59.5295 0.0388184Z" fill="#2F2F2F"/>
</svg>
