<svg width="70" height="21" viewBox="0 0 70 21" fill="none" xmlns="http://www.w3.org/2000/svg">
<path d="M42.056 6.6C42.056 6.376 42.1413 6.18933 42.312 6.04C42.4827 5.88 42.6907 5.8 42.936 5.8H50.104C50.104 6.312 50.008 6.69067 49.816 6.936C49.624 7.17067 49.32 7.288 48.904 7.288H43.784V10.52H48.184C48.184 11.032 48.088 11.4107 47.896 11.656C47.704 11.8907 47.4 12.008 46.984 12.008H43.784V15.832C43.784 16.28 43.64 16.6107 43.352 16.824C43.0747 17.0373 42.6427 17.144 42.056 17.144V6.6ZM50.6685 17.144C50.2952 17.0907 50.0072 16.9467 49.8045 16.712C49.6018 16.4773 49.5005 16.1947 49.5005 15.864C49.5005 15.6187 49.5538 15.3733 49.6605 15.128L53.4365 6.216C53.5965 5.84267 53.8792 5.656 54.2845 5.656C54.6792 5.656 54.9512 5.84267 55.1005 6.216L58.8765 15.128C58.9832 15.3733 59.0365 15.6187 59.0365 15.864C59.0365 16.1947 58.9352 16.4773 58.7325 16.712C58.5298 16.9467 58.2418 17.0907 57.8685 17.144L56.5085 13.896H52.0445L50.6685 17.144ZM55.9805 12.424L54.0125 7.48L53.8685 7.544L54.1885 8.36L52.5565 12.424H55.9805ZM68.3101 17.464C67.9795 17.464 67.6808 17.384 67.4141 17.224C67.1475 17.0747 66.9288 16.8667 66.7581 16.6C66.0648 16.9627 65.2861 17.144 64.4221 17.144C63.5368 17.144 62.7368 16.9733 62.0221 16.632C61.3181 16.28 60.7635 15.8 60.3581 15.192C59.9635 14.584 59.7661 13.912 59.7661 13.176V9.592C59.7661 8.856 59.9635 8.18933 60.3581 7.592C60.7635 6.99467 61.3181 6.52533 62.0221 6.184C62.7368 5.832 63.5368 5.656 64.4221 5.656C65.3075 5.656 66.1021 5.832 66.8061 6.184C67.5208 6.52533 68.0808 6.99467 68.4861 7.592C68.8915 8.18933 69.0941 8.856 69.0941 9.592V13.176C69.0941 13.6987 68.9875 14.1893 68.7741 14.648C68.5715 15.1067 68.2835 15.5013 67.9101 15.832C68.0701 16.0347 68.2728 16.1893 68.5181 16.296C68.7635 16.392 69.0301 16.4293 69.3181 16.408C69.3181 16.7707 69.2328 17.0373 69.0621 17.208C68.9021 17.3787 68.6515 17.464 68.3101 17.464ZM66.8861 14.504C67.2275 14.184 67.3981 13.736 67.3981 13.16V9.624C67.3981 8.86667 67.1315 8.264 66.5981 7.816C66.0755 7.368 65.3501 7.144 64.4221 7.144C63.4941 7.144 62.7635 7.368 62.2301 7.816C61.7075 8.264 61.4461 8.86667 61.4461 9.624V12.552C61.9475 12.392 62.3955 12.312 62.7901 12.312C63.6648 12.312 64.4221 12.4827 65.0621 12.824C65.7128 13.1547 66.3208 13.7147 66.8861 14.504ZM64.4221 15.656C64.9555 15.656 65.4461 15.5707 65.8941 15.4C65.4461 14.7067 64.9821 14.232 64.5021 13.976C64.0328 13.72 63.4355 13.592 62.7101 13.592C62.3581 13.592 61.9688 13.6667 61.5421 13.816C61.6915 14.3813 62.0168 14.8293 62.5181 15.16C63.0195 15.4907 63.6541 15.656 64.4221 15.656Z" fill="white"/>
<path d="M7.5 5C3.3578 5 0 8.35792 0 12.5C0 16.6423 3.3578 20 7.5 20C11.6422 20 15 16.6423 15 12.5C15 8.35792 11.6422 5 7.5 5ZM7.5 16.25C6.98221 16.25 6.5625 15.8305 6.5625 15.3125C6.5625 14.7948 6.98221 14.375 7.5 14.375C8.01779 14.375 8.4375 14.7948 8.4375 15.3125C8.4375 15.8305 8.01779 16.25 7.5 16.25ZM8.21596 12.3586C8.0681 12.4194 7.96875 12.5856 7.96875 12.7719V12.9688C7.96875 13.2279 7.7591 13.4375 7.5 13.4375C7.2409 13.4375 7.03125 13.2279 7.03125 12.9688V12.7719C7.03125 12.202 7.3558 11.6994 7.85798 11.492C8.26814 11.3221 8.50022 10.8946 8.42194 10.4515C8.3574 10.0825 8.04246 9.76757 7.67396 9.70303C7.38832 9.65267 7.11319 9.72547 6.8976 9.90673C6.68473 10.0858 6.5625 10.3476 6.5625 10.625C6.5625 10.8841 6.35285 11.0938 6.09375 11.0938C5.83465 11.0938 5.625 10.8841 5.625 10.625C5.625 10.0697 5.86898 9.54605 6.2947 9.18854C6.71997 8.83147 7.28071 8.68271 7.83598 8.77977C8.59222 8.91251 9.21293 9.53325 9.34567 10.2895C9.49998 11.1684 9.0358 12.0194 8.21596 12.3586Z" fill="#39AED0"/>
</svg>
