<svg width="15" height="13" viewBox="0 0 15 13" fill="none" xmlns="http://www.w3.org/2000/svg">
<path d="M4.94967 5.49998C5.5091 5.49998 6.05598 5.3387 6.52114 5.03653C6.98629 4.73435 7.34884 4.30486 7.56293 3.80237C7.77701 3.29987 7.83303 2.74694 7.72389 2.2135C7.61475 1.68005 7.34535 1.19005 6.94977 0.805455C6.55418 0.420862 6.05018 0.158951 5.50149 0.0528416C4.9528 -0.0532675 4.38407 0.00119152 3.86722 0.209332C3.35036 0.417472 2.9086 0.769945 2.59779 1.22218C2.28699 1.67441 2.12109 2.2061 2.12109 2.74999C2.12109 3.47934 2.4191 4.17881 2.94956 4.69453C3.48002 5.21025 4.19948 5.49998 4.94967 5.49998Z" fill="#787878"/>
<path d="M10.6078 6.8745C11.0273 6.8745 11.4375 6.75354 11.7864 6.52691C12.1352 6.30028 12.4071 5.97816 12.5677 5.60129C12.7283 5.22442 12.7703 4.80972 12.6884 4.40963C12.6066 4.00955 12.4045 3.64205 12.1078 3.3536C11.8111 3.06516 11.4331 2.86872 11.0216 2.78914C10.6101 2.70956 10.1836 2.75041 9.79592 2.90651C9.40828 3.06262 9.07696 3.32697 8.84385 3.66615C8.61075 4.00532 8.48633 4.40408 8.48633 4.81201C8.48633 5.35901 8.70983 5.88362 9.10768 6.27041C9.50552 6.6572 10.0451 6.8745 10.6078 6.8745Z" fill="#787878"/>
<path d="M13.4357 11.6873C13.6233 11.6873 13.8031 11.6149 13.9357 11.486C14.0684 11.357 14.1429 11.1822 14.1429 10.9998C14.1423 10.3573 13.9565 9.72777 13.6066 9.18269C13.2566 8.63761 12.7566 8.19879 12.1631 7.91603C11.5696 7.63327 10.9065 7.51788 10.249 7.58296C9.59154 7.64804 8.96596 7.89098 8.44329 8.28421C7.75065 7.61346 6.86923 7.15712 5.91018 6.97276C4.95113 6.78839 3.9574 6.88425 3.05431 7.24824C2.15122 7.61224 1.37922 8.22807 0.83566 9.01807C0.292099 9.80807 0.00132249 10.7369 0 11.6873C0 11.8697 0.0745023 12.0445 0.207117 12.1735C0.339732 12.3024 0.519597 12.3748 0.707143 12.3748H9.19286C9.3804 12.3748 9.56027 12.3024 9.69288 12.1735C9.8255 12.0445 9.9 11.8697 9.9 11.6873" fill="#787878"/>
</svg>
