<svg width="15" height="15" viewBox="0 0 15 15" fill="none" xmlns="http://www.w3.org/2000/svg">
<path d="M14.4622 11.8327L11.2948 8.66534C11.7131 7.82869 11.9522 6.93227 11.9522 5.9761C11.9522 2.68924 9.26295 0 5.9761 0C2.68924 0 0 2.68924 0 5.9761C0 9.26295 2.68924 11.9522 5.9761 11.9522C6.93227 11.9522 7.82869 11.7131 8.66534 11.2948L11.8327 14.4622C12.1912 14.8207 12.6693 15 13.1474 15C13.6255 15 14.1036 14.8207 14.4622 14.4622C15.1793 13.745 15.1793 12.5498 14.4622 11.8327ZM4.18327 8.36653C4.18327 8.7251 3.94422 8.96414 3.58566 8.96414C3.22709 8.96414 2.98805 8.7251 2.98805 8.36653V5.37849C2.98805 5.01992 3.22709 4.78088 3.58566 4.78088C3.94422 4.78088 4.18327 5.01992 4.18327 5.37849V8.36653ZM6.57371 8.36653C6.57371 8.7251 6.33466 8.96414 5.9761 8.96414C5.61753 8.96414 5.37849 8.7251 5.37849 8.36653V2.98805C5.37849 2.62948 5.61753 2.39044 5.9761 2.39044C6.33466 2.39044 6.57371 2.62948 6.57371 2.98805V8.36653ZM8.96414 8.36653C8.96414 8.7251 8.7251 8.96414 8.36653 8.96414C8.00797 8.96414 7.76892 8.7251 7.76892 8.36653V4.18327C7.76892 3.8247 8.00797 3.58566 8.36653 3.58566C8.7251 3.58566 8.96414 3.8247 8.96414 4.18327V8.36653Z" fill="#787878"/>
</svg>
