<svg width="14" height="11" viewBox="0 0 14 11" fill="none" xmlns="http://www.w3.org/2000/svg">
<path d="M13 3.7C13 2.2087 10.3137 1 7 1C3.68629 1 1 2.2087 1 3.7M13 3.7V7.3C13 8.218 11.9834 9.028 10.4286 9.5158C9.45657 9.8218 8.27457 10 7 10C5.72543 10 4.54343 9.8209 3.57143 9.5158C2.01743 9.028 1 8.218 1 7.3V3.7M13 3.7C13 4.618 11.9834 5.428 10.4286 5.9158C9.45657 6.2218 8.27457 6.4 7 6.4C5.72543 6.4 4.54343 6.2209 3.57143 5.9158C2.01743 5.428 1 4.618 1 3.7M13 3.7H7H1" stroke="#787878" stroke-linecap="round" stroke-linejoin="round"/>
</svg>
