<svg width="16" height="15" viewBox="0 0 16 15" fill="none" xmlns="http://www.w3.org/2000/svg">
<g clip-path="url(#clip0_985_4308)">
<path d="M13.4167 11.9812L13.275 11.8562C12.8731 11.4982 12.5213 11.0875 12.2292 10.6354C11.9101 10.0115 11.7189 9.3301 11.6667 8.63125V6.57292C11.6694 5.47526 11.2713 4.41436 10.547 3.58957C9.82269 2.76478 8.82215 2.23286 7.73333 2.09375V1.55625C7.73333 1.40872 7.67473 1.26724 7.57041 1.16292C7.46609 1.0586 7.32461 1 7.17708 1C7.02956 1 6.88807 1.0586 6.78376 1.16292C6.67944 1.26724 6.62083 1.40872 6.62083 1.55625V2.10208C5.54177 2.25122 4.55332 2.78636 3.83855 3.60838C3.12379 4.4304 2.73114 5.4836 2.73333 6.57292V8.63125C2.68115 9.3301 2.48991 10.0115 2.17083 10.6354C1.8837 11.0864 1.53758 11.497 1.14167 11.8562L1 11.9812V13.1562H13.4167V11.9812Z" fill="#39AED0"/>
<path d="M6.1123 13.5938C6.14884 13.8579 6.27972 14.0998 6.48076 14.275C6.6818 14.4501 6.93942 14.5466 7.20605 14.5466C7.47269 14.5466 7.73031 14.4501 7.93135 14.275C8.13239 14.0998 8.26327 13.8579 8.2998 13.5938H6.1123Z" fill="#39AED0"/>
</g>
<defs>
<clipPath id="clip0_985_4308">
<rect width="15.3103" height="15" fill="white"/>
</clipPath>
</defs>
</svg>
