<svg width="16" height="16" viewBox="0 0 16 16" fill="none" xmlns="http://www.w3.org/2000/svg">
<path fill-rule="evenodd" clip-rule="evenodd" d="M4.80003 7.20001C4.80003 6.15591 4.12957 5.27762 3.19997 4.94721V0.000137198H1.59992V4.94721C0.670324 5.27761 0 6.15591 0 7.20001C0 8.24398 0.670324 9.12241 1.59992 9.45282V16H3.19997V9.45282C4.12957 9.12242 4.80003 8.24398 4.80003 7.20001ZM10.3999 12C10.3999 10.9559 9.72948 10.0776 8.79989 9.7472V0.000137198H7.19997V9.7472C6.27038 10.0776 5.59992 10.9559 5.59992 12C5.59992 13.044 6.27038 13.9224 7.19997 14.2528V15.9999H8.79989V14.2528C9.72948 13.9224 10.3999 13.044 10.3999 12ZM14.4001 15.9998H12.8V6.2527C11.8704 5.9223 11.2 5.044 11.2 3.9999C11.2 2.95593 11.8704 2.0775 12.8 1.74709V0H14.4001V1.74709C15.3297 2.07749 16 2.95593 16 3.9999C16 5.044 15.3297 5.92229 14.4001 6.2527V15.9998Z" fill="#787878"/>
</svg>
