<svg width="12" height="10" viewBox="0 0 12 10" fill="none" xmlns="http://www.w3.org/2000/svg">
<path d="M1.77373 10L2.71103 6.18617C2.83292 5.69128 2.47145 5.20817 1.93345 5.1414L0 4.90966L0.870053 4.8154C2.21086 4.67007 3.30368 3.74313 3.5937 2.50982L4.17373 0H7.37233C9.3352 0 10.4785 1.13904 10.096 2.72192C9.84799 3.75884 10.4869 4.80361 11.5671 5.12962L12 5.25923L11.1299 5.39277C10.0834 5.55381 9.24273 6.29222 9.01156 7.25844C8.61226 8.91988 6.95201 9.99607 4.97233 9.99607H1.77373V10ZM6.09877 1.92459L4.61086 8.12255H5.40946C5.98109 8.12255 6.49387 7.76905 6.62837 7.23095L7.71278 2.73763C7.82627 2.27808 7.54046 1.92066 6.89317 1.92066H6.09457L6.09877 1.92459Z" fill="#2D2D2D"/>
</svg>
