<svg width="15" height="8" viewBox="0 0 15 8" fill="none" xmlns="http://www.w3.org/2000/svg">
<path fill-rule="evenodd" clip-rule="evenodd" d="M4.7477 0.218992L0.596142 2.91449C0.223721 3.15651 0 3.56358 0 4C0 4.43642 0.223721 4.84349 0.596142 5.08551L4.7477 7.78101C5.1583 8.04782 5.68679 8.07261 6.12285 7.84559C6.55823 7.61857 6.83018 7.17628 6.83018 6.69485V1.30515C6.83018 0.823719 6.55823 0.381426 6.12285 0.154409C5.68679 -0.0726078 5.1583 -0.047818 4.7477 0.218992ZM14.4039 2.91449L10.2523 0.218992C9.8417 -0.047818 9.31321 -0.0726078 8.87715 0.154409C8.44177 0.381426 8.16982 0.823719 8.16982 1.30515V6.69485C8.16982 7.17628 8.44177 7.61857 8.87715 7.84559C9.31321 8.07261 9.8417 8.04782 10.2523 7.78101L14.4039 5.08551C14.7763 4.84349 15 4.43642 15 4C15 3.56358 14.7763 3.15651 14.4039 2.91449Z" fill="#39AED0"/>
</svg>
