<svg width="9" height="16" viewBox="0 0 9 16" fill="none" xmlns="http://www.w3.org/2000/svg">
<path d="M1.86881e-07 0.328497L1.71855e-07 1.58851L6.76471 7.74297C6.83106 7.80529 6.87011 7.90093 6.87011 7.99966C6.87011 8.10085 6.83106 8.19403 6.76471 8.2582L1.8951e-08 14.4108L3.91806e-09 15.6714C2.40226e-09 15.7986 0.0615267 15.9133 0.159969 15.967C0.258412 16.0225 0.37558 16.0065 0.460112 15.93L8.893 8.25697C8.95988 8.19279 9 8.09962 9 7.99842C9 7.8997 8.95988 7.80405 8.893 7.74173L0.459577 0.069953C0.37558 -0.00902938 0.257877 -0.0213699 0.159434 0.0341635C0.061527 0.0866127 1.88382e-07 0.202619 1.86881e-07 0.328497Z" fill="#787878"/>
</svg>
