<svg width="16" height="16" viewBox="0 0 16 16" fill="none" xmlns="http://www.w3.org/2000/svg">
<path d="M6.93319 9.3335C8.77414 9.3335 10.2665 7.54264 10.2665 5.3335C10.2665 3.12436 8.77414 1.3335 6.93319 1.3335C5.09224 1.3335 3.59985 3.12436 3.59985 5.3335C3.59985 7.54264 5.09224 9.3335 6.93319 9.3335Z" fill="#39AED0"/>
<path d="M13.4667 12.7337C12.8667 11.5337 11.7333 10.5337 10.2667 9.93375C9.86666 9.80041 9.4 9.80041 9.06666 10.0004C8.4 10.4004 7.73333 10.6004 6.93333 10.6004C6.13333 10.6004 5.46666 10.4004 4.8 10.0004C4.46666 9.86708 4 9.80041 3.6 10.0004C2.13333 10.6004 0.999998 11.6004 0.399998 12.8004C-0.0666686 13.6671 0.666665 14.6671 1.66666 14.6671H12.2C13.2 14.6671 13.9333 13.6671 13.4667 12.7337Z" fill="#39AED0"/>
</svg>
