<svg width="122" height="21" viewBox="0 0 122 21" fill="none" xmlns="http://www.w3.org/2000/svg">
<path d="M41.0558 6.6C41.0558 6.36533 41.1358 6.17333 41.2958 6.024C41.4664 5.87467 41.6798 5.8 41.9358 5.8H46.3038C47.3704 5.8 48.2131 6.104 48.8318 6.712C49.4611 7.30933 49.7758 8.12533 49.7758 9.16C49.7758 10.4187 49.2371 11.304 48.1598 11.816V11.864C48.6291 12.0773 48.9864 12.3867 49.2318 12.792C49.4878 13.1973 49.6158 13.688 49.6158 14.264V15.784C49.6158 16.2213 49.4664 16.5573 49.1678 16.792C48.8798 17.0267 48.4584 17.144 47.9038 17.144V14.36C47.9038 13.144 47.3758 12.536 46.3198 12.536H42.7518V15.784C42.7518 16.6907 42.1864 17.144 41.0558 17.144V6.6ZM46.2238 11.064C46.7891 11.064 47.2318 10.8933 47.5518 10.552C47.8824 10.2107 48.0478 9.74133 48.0478 9.144C48.0478 8.536 47.8931 8.07733 47.5838 7.768C47.2744 7.448 46.8211 7.288 46.2238 7.288H42.7518V11.064H46.2238ZM51.7276 6.6C51.7276 6.376 51.813 6.18933 51.9836 6.04C52.1543 5.88 52.3623 5.8 52.6076 5.8H59.7116C59.7116 6.312 59.6103 6.69067 59.4076 6.936C59.2156 7.17067 58.9116 7.288 58.4956 7.288H53.4556V10.6H57.8556C57.8556 11.112 57.7596 11.4907 57.5676 11.736C57.3756 11.9707 57.0716 12.088 56.6556 12.088H53.4556V15.512H58.8316C59.237 15.512 59.5356 15.6347 59.7276 15.88C59.9303 16.1147 60.0316 16.488 60.0316 17H52.6076C52.3623 17 52.1543 16.9253 51.9836 16.776C51.813 16.616 51.7276 16.424 51.7276 16.2V6.6ZM61.7589 6.6C61.7589 6.376 61.8442 6.18933 62.0149 6.04C62.1855 5.88 62.3935 5.8 62.6389 5.8H69.8069C69.8069 6.312 69.7109 6.69067 69.5189 6.936C69.3269 7.17067 69.0229 7.288 68.6069 7.288H63.4869V10.52H67.8869C67.8869 11.032 67.7909 11.4107 67.5989 11.656C67.4069 11.8907 67.1029 12.008 66.6869 12.008H63.4869V15.832C63.4869 16.28 63.3429 16.6107 63.0549 16.824C62.7775 17.0373 62.3455 17.144 61.7589 17.144V6.6ZM70.6964 6.6C70.6964 6.376 70.7817 6.18933 70.9524 6.04C71.123 5.88 71.331 5.8 71.5764 5.8H78.6804C78.6804 6.312 78.579 6.69067 78.3764 6.936C78.1844 7.17067 77.8804 7.288 77.4644 7.288H72.4244V10.6H76.8244C76.8244 11.112 76.7284 11.4907 76.5364 11.736C76.3444 11.9707 76.0404 12.088 75.6244 12.088H72.4244V15.512H77.8004C78.2057 15.512 78.5044 15.6347 78.6964 15.88C78.899 16.1147 79.0004 16.488 79.0004 17H71.5764C71.331 17 71.123 16.9253 70.9524 16.776C70.7817 16.616 70.6964 16.424 70.6964 16.2V6.6ZM80.7276 6.6C80.7276 6.36533 80.8076 6.17333 80.9676 6.024C81.1383 5.87467 81.3516 5.8 81.6076 5.8H85.9756C87.0423 5.8 87.885 6.104 88.5036 6.712C89.133 7.30933 89.4476 8.12533 89.4476 9.16C89.4476 10.4187 88.909 11.304 87.8316 11.816V11.864C88.301 12.0773 88.6583 12.3867 88.9036 12.792C89.1596 13.1973 89.2876 13.688 89.2876 14.264V15.784C89.2876 16.2213 89.1383 16.5573 88.8396 16.792C88.5516 17.0267 88.1303 17.144 87.5756 17.144V14.36C87.5756 13.144 87.0476 12.536 85.9916 12.536H82.4236V15.784C82.4236 16.6907 81.8583 17.144 80.7276 17.144V6.6ZM85.8956 11.064C86.461 11.064 86.9036 10.8933 87.2236 10.552C87.5543 10.2107 87.7196 9.74133 87.7196 9.144C87.7196 8.536 87.565 8.07733 87.2556 7.768C86.9463 7.448 86.493 7.288 85.8956 7.288H82.4236V11.064H85.8956ZM91.3995 6.6C91.3995 6.36533 91.4795 6.17333 91.6395 6.024C91.8102 5.87467 92.0235 5.8 92.2795 5.8H96.6475C97.7142 5.8 98.5568 6.104 99.1755 6.712C99.8048 7.30933 100.12 8.12533 100.12 9.16C100.12 10.4187 99.5808 11.304 98.5035 11.816V11.864C98.9728 12.0773 99.3302 12.3867 99.5755 12.792C99.8315 13.1973 99.9595 13.688 99.9595 14.264V15.784C99.9595 16.2213 99.8102 16.5573 99.5115 16.792C99.2235 17.0267 98.8022 17.144 98.2475 17.144V14.36C98.2475 13.144 97.7195 12.536 96.6635 12.536H93.0955V15.784C93.0955 16.6907 92.5302 17.144 91.3995 17.144V6.6ZM96.5675 11.064C97.1328 11.064 97.5755 10.8933 97.8955 10.552C98.2262 10.2107 98.3915 9.74133 98.3915 9.144C98.3915 8.536 98.2368 8.07733 97.9275 7.768C97.6182 7.448 97.1648 7.288 96.5675 7.288H93.0955V11.064H96.5675ZM102.871 17.144C102.498 17.0907 102.21 16.9467 102.007 16.712C101.805 16.4773 101.703 16.1947 101.703 15.864C101.703 15.6187 101.757 15.3733 101.863 15.128L105.639 6.216C105.799 5.84267 106.082 5.656 106.487 5.656C106.882 5.656 107.154 5.84267 107.303 6.216L111.079 15.128C111.186 15.3733 111.239 15.6187 111.239 15.864C111.239 16.1947 111.138 16.4773 110.935 16.712C110.733 16.9467 110.445 17.0907 110.071 17.144L108.711 13.896H104.247L102.871 17.144ZM108.183 12.424L106.215 7.48L106.071 7.544L106.391 8.36L104.759 12.424H108.183ZM113.874 17C113.628 17 113.415 16.9147 113.234 16.744C113.063 16.5627 112.978 16.3493 112.978 16.104V7.016C112.978 6.10933 113.554 5.656 114.706 5.656V15.496H119.41C119.826 15.496 120.146 15.624 120.37 15.88C120.594 16.136 120.706 16.5093 120.706 17H113.874Z" fill="white"/>
<path d="M4.94967 9.49998C5.5091 9.49998 6.05598 9.3387 6.52114 9.03653C6.98629 8.73435 7.34884 8.30486 7.56293 7.80237C7.77701 7.29987 7.83303 6.74694 7.72389 6.2135C7.61475 5.68005 7.34535 5.19005 6.94977 4.80545C6.55418 4.42086 6.05018 4.15895 5.50149 4.05284C4.9528 3.94673 4.38407 4.00119 3.86722 4.20933C3.35036 4.41747 2.9086 4.76995 2.59779 5.22218C2.28699 5.67441 2.12109 6.2061 2.12109 6.74999C2.12109 7.47934 2.4191 8.17881 2.94956 8.69453C3.48002 9.21025 4.19948 9.49998 4.94967 9.49998Z" fill="#39AED0"/>
<path d="M10.6075 10.875C11.0271 10.875 11.4372 10.754 11.7861 10.5274C12.135 10.3008 12.4069 9.97865 12.5675 9.60178C12.728 9.22491 12.77 8.81021 12.6882 8.41012C12.6063 8.01004 12.4043 7.64254 12.1076 7.35409C11.8109 7.06565 11.4329 6.86921 11.0214 6.78963C10.6099 6.71005 10.1833 6.75089 9.79568 6.907C9.40804 7.0631 9.07671 7.32746 8.84361 7.66663C8.6105 8.00581 8.48608 8.40457 8.48608 8.81249C8.48608 9.3595 8.70959 9.88411 9.10744 10.2709C9.50528 10.6577 10.0449 10.875 10.6075 10.875Z" fill="#39AED0"/>
<path d="M13.4357 15.6868C13.6233 15.6868 13.8031 15.6144 13.9357 15.4855C14.0684 15.3565 14.1429 15.1817 14.1429 14.9993C14.1423 14.3568 13.9565 13.7273 13.6066 13.1822C13.2566 12.6371 12.7566 12.1983 12.1631 11.9155C11.5696 11.6328 10.9065 11.5174 10.249 11.5825C9.59154 11.6476 8.96596 11.8905 8.44329 12.2837C7.75065 11.613 6.86923 11.1566 5.91018 10.9723C4.95113 10.7879 3.9574 10.8838 3.05431 11.2478C2.15122 11.6117 1.37922 12.2276 0.83566 13.0176C0.292099 13.8076 0.00132249 14.7364 0 15.6868C0 15.8692 0.0745023 16.044 0.207117 16.173C0.339732 16.3019 0.519597 16.3743 0.707143 16.3743H9.19286C9.3804 16.3743 9.56027 16.3019 9.69288 16.173C9.8255 16.044 9.9 15.8692 9.9 15.6868" fill="#39AED0"/>
</svg>
