<svg width="14" height="14" viewBox="0 0 14 14" fill="none" xmlns="http://www.w3.org/2000/svg">
<path d="M0.0361641 7.17846C0.0181452 7.11898 0 7.03958 0 6.98011C0 6.84123 0.0541833 6.7025 0.180695 6.56361L6.75614 0.118957C6.84649 0.0396983 6.93683 0 7.00903 0L7.26193 0.118957L13.8193 6.56361C13.9458 6.68257 14 6.82144 14 6.98011C14 7.03958 13.982 7.11898 13.9638 7.17846C13.8916 7.39659 13.7109 7.51555 13.458 7.51555H12.4103V13.9999H8.49032V10.0934C8.49032 9.87527 8.32777 9.71661 8.14707 9.71661L5.88902 9.71675C5.6903 9.71675 5.54576 9.89518 5.54576 10.0935V14H1.58966V7.51569H0.541922C0.289027 7.51569 0.126473 7.39673 0.0361188 7.1786L0.0361641 7.17846Z" fill="#787878"/>
</svg>
