<svg width="13" height="15" viewBox="0 0 13 15" fill="none" xmlns="http://www.w3.org/2000/svg">
<path d="M2.4749 4.58886C2.06151 5.08691 1.51757 5.88964 1.08787 6.62793C0.761506 7.19043 0.00543933 8.70215 0 8.7959C0 8.82519 0.0543933 8.84277 0.125105 8.84277C0.337239 8.84277 0.386193 8.93066 0.494979 9.51074C0.870293 11.4971 1.71339 13.0791 2.79038 13.8291C3.42134 14.2686 3.36695 14.2627 6.22803 14.2627C8.70837 14.2627 8.7954 14.2568 9.08912 14.1396C9.92134 13.7998 10.6992 12.9385 11.2377 11.7666C11.5477 11.0928 11.5477 11.1045 11.3682 10.8525C11.2866 10.7295 11.118 10.5186 10.9983 10.3779L10.7808 10.1318H8.70293C7.4954 10.1318 6.58703 10.1553 6.53264 10.1904C6.47824 10.2197 6.39121 10.3662 6.33682 10.5127C6.28787 10.665 6.2226 10.7646 6.20084 10.7353C6.07029 10.5947 5.60251 9.03613 5.60251 8.74902C5.60251 8.708 5.67866 8.62597 5.77113 8.5791C5.96695 8.46777 6.01046 8.55566 5.31423 7.63574C4.81925 6.97949 4.36234 6.25879 3.86736 5.37402C3.60084 4.89941 3.32343 4.583 2.9318 4.30761L2.78494 4.208L2.4749 4.58886Z" fill="#39AED0"/>
<path d="M3.54112 0.0888672C2.93736 0.264648 2.33359 0.733398 1.82229 1.43066C1.52313 1.84082 0.924805 3.01855 0.924805 3.20605C0.924805 3.2998 1.45242 4.00879 1.59928 4.1084C1.63192 4.13184 2.62188 4.15527 3.79677 4.15527H5.93443L6.07041 3.82129C6.21183 3.4873 6.21183 3.48145 6.28255 3.62793C6.39133 3.85645 6.67962 4.78809 6.76665 5.19824L6.8428 5.56152L6.68506 5.64941C6.59803 5.70215 6.52732 5.7666 6.52732 5.7959C6.52732 5.83105 6.74489 6.1416 7.00598 6.4873C7.52815 7.16699 8.13736 8.10449 8.58882 8.91309C8.80096 9.2998 8.95326 9.49316 9.21978 9.71582C9.4156 9.87988 9.58966 10.0146 9.61686 10.0146C9.78547 10.0146 10.9114 8.42676 11.5043 7.34863C11.8796 6.66309 12.4018 5.57324 12.4018 5.47949C12.4018 5.42676 12.3365 5.38574 12.2277 5.37402L12.0537 5.35645L11.9286 4.71777C11.7001 3.56934 11.2541 2.37402 10.7809 1.66504C10.2696 0.891602 9.56246 0.293945 8.9315 0.106445C8.60514 0.00683594 8.34405 -0.00488281 6.20096 0.000976562C4.31351 0.000976562 3.77501 0.0185547 3.54112 0.0888672Z" fill="#39AED0"/>
</svg>
