<svg width="16" height="16" viewBox="0 0 16 16" fill="none" xmlns="http://www.w3.org/2000/svg">
<path d="M6.93294 9.33337C8.77389 9.33337 10.2663 7.54251 10.2663 5.33337C10.2663 3.12424 8.77389 1.33337 6.93294 1.33337C5.09199 1.33337 3.59961 3.12424 3.59961 5.33337C3.59961 7.54251 5.09199 9.33337 6.93294 9.33337Z" fill="#787878"/>
<path d="M13.4664 12.7336C12.8664 11.5336 11.7331 10.5336 10.2664 9.93362C9.86642 9.80029 9.39975 9.80029 9.06642 10.0003C8.39975 10.4003 7.73309 10.6003 6.93309 10.6003C6.13309 10.6003 5.46642 10.4003 4.79975 10.0003C4.46642 9.86696 3.99975 9.80029 3.59975 10.0003C2.13309 10.6003 0.999754 11.6003 0.399754 12.8003C-0.0669127 13.667 0.66642 14.667 1.66642 14.667H12.1998C13.1998 14.667 13.9331 13.667 13.4664 12.7336Z" fill="#787878"/>
</svg>
