<svg width="23" height="17" viewBox="0 0 23 17" fill="none" xmlns="http://www.w3.org/2000/svg">
<path d="M15.2891 5.07151L15.2886 5.07164L8.57143 5.55167L8.71098 5.07154C8.71098 5.07154 8.71097 5.07153 8.71097 5.07153C7.97039 4.85628 7.39233 4.57905 7.01064 4.28108C6.62454 3.97967 6.5 3.70923 6.5 3.5C6.5 3.32896 6.58107 3.12078 6.8224 2.88303C7.06551 2.64354 7.44293 2.40486 7.94966 2.19373C8.96093 1.77238 10.3927 1.5 12 1.5C13.6073 1.5 15.0391 1.77238 16.0503 2.19373C16.5571 2.40486 16.9345 2.64354 17.1776 2.88303C17.4189 3.12078 17.5 3.32896 17.5 3.5C17.5 3.70937 17.3755 3.97981 16.9896 4.28112C16.6081 4.57904 16.0301 4.85626 15.2891 5.07151Z" stroke="#39AED0"/>
<path d="M18 3.7C18 2.2087 15.3137 1 12 1C8.68629 1 6 2.2087 6 3.7M18 3.7V7.3C18 8.218 16.9834 9.028 15.4286 9.5158C14.4566 9.8218 13.2746 10 12 10C10.7254 10 9.54343 9.8209 8.57143 9.5158C7.01743 9.028 6 8.218 6 7.3V3.7M18 3.7C18 4.618 16.9834 5.428 15.4286 5.9158C14.4566 6.2218 13.2746 6.4 12 6.4C10.7254 6.4 9.54343 6.2209 8.57143 5.9158C7.01743 5.428 6 4.618 6 3.7M18 3.7H12H6" stroke="#39AED0" stroke-linecap="round" stroke-linejoin="round"/>
<path d="M3 7.23334C3 8.07363 4.01743 8.81506 5.57143 9.26156C6.54343 9.54165 7.72543 9.70477 9 9.70477C9.59571 9.70477 10.1709 9.66934 10.7143 9.60262M3 7.23334V10.5286C3 11.3689 4.01743 12.1103 5.57143 12.5568C6.54343 12.8369 7.72543 13 9 13C10.2746 13 11.4566 12.8361 12.4286 12.5568C13.9826 12.1103 15 11.3689 15 10.5286V9.70477L3 7.23334ZM3 7.23334C3 6.24725 4.40143 5.39625 6.42857 5L3 7.23334Z" stroke="#39AED0" stroke-width="1.5" stroke-linecap="round" stroke-linejoin="round"/>
</svg>
