<svg width="13" height="13" viewBox="0 0 13 13" fill="none" xmlns="http://www.w3.org/2000/svg">
<path d="M12.4167 10.9812L12.275 10.8562C11.8731 10.4982 11.5213 10.0875 11.2292 9.63542C10.9101 9.01148 10.7189 8.3301 10.6667 7.63125V5.57292C10.6694 4.47526 10.2713 3.41436 9.54697 2.58957C8.82269 1.76478 7.82215 1.23286 6.73333 1.09375V0.55625C6.73333 0.408723 6.67473 0.267239 6.57041 0.162922C6.46609 0.0586048 6.32461 0 6.17708 0C6.02956 0 5.88807 0.0586048 5.78376 0.162922C5.67944 0.267239 5.62083 0.408723 5.62083 0.55625V1.10208C4.54177 1.25122 3.55332 1.78636 2.83855 2.60838C2.12379 3.4304 1.73114 4.4836 1.73333 5.57292V7.63125C1.68115 8.3301 1.48991 9.01148 1.17083 9.63542C0.883701 10.0864 0.537581 10.497 0.141667 10.8562L0 10.9812V12.1562H12.4167V10.9812Z" fill="#787878"/>
</svg>
