<svg width="15" height="15" viewBox="0 0 15 15" fill="none" xmlns="http://www.w3.org/2000/svg">
<path d="M2.01834 5.86382C2.74815 5.54067 3.63814 5.24758 4.52463 5.03844L4.55888 5.03024C6.27585 4.61278 9.3971 4.4602 10.2101 4.4512C10.1155 4.02532 10.0114 3.65256 9.95019 3.44365C9.85279 3.46106 9.74072 3.46959 9.60907 3.46959C9.11674 3.46959 8.52188 3.34307 8.35131 3.30415C7.92099 3.23657 7.04566 2.87372 6.34247 2.58221C6.01113 2.44487 5.69835 2.31516 5.59527 2.28807C5.12683 2.14766 4.63153 2.07666 4.12178 2.07666C3.05801 2.07666 2.18177 2.37828 1.78001 2.5442C0.692585 3.79649 0.0268272 5.4171 0 7.19221C0.440334 6.70862 1.11474 6.26398 2.01839 5.8639L2.01834 5.86382Z" fill="#787878"/>
<path d="M10.6427 3.42187C10.728 3.70052 10.8156 4.01923 10.9233 4.44058C12.8308 4.46504 13.8542 4.77954 14.389 5.05638C14.0316 3.96121 13.4209 2.97926 12.624 2.17847C12.5743 2.4487 12.4602 2.6807 12.2797 2.86913C11.8518 3.31596 11.1606 3.41768 10.6426 3.4219L10.6427 3.42187Z" fill="#787878"/>
<path d="M5.70083 9.81193C6.07108 9.40789 7.54958 7.87763 7.82458 7.6026C8.55584 6.84014 9.4634 6.3825 10.4508 6.27761C10.4185 5.63131 10.3545 5.23228 10.3303 5.09814C6.98286 5.15219 4.33364 5.94843 4.30742 5.95664C1.77861 6.62738 0.615985 7.87183 0.121094 8.62839C0.393147 10.0976 1.10793 11.4131 2.12539 12.4334C3.23908 11.9794 5.37145 10.1579 5.70089 9.81187L5.70083 9.81193Z" fill="#787878"/>
<path d="M6.29638 1.6356C7.96852 2.52687 9.12547 2.7624 9.5037 2.7624C9.62522 2.76229 9.68052 2.74625 9.7026 2.73714C9.70009 2.72406 9.69406 2.70017 9.67995 2.65693C9.6729 2.63576 9.66653 2.61551 9.66152 2.59708C8.93241 0.670847 7.69978 0.114787 7.38211 0.000341348C7.37847 0.000341348 7.37494 0 7.3713 0C5.86094 0 4.4573 0.450354 3.28809 1.22179C3.5243 1.18868 3.76917 1.17127 4.02165 1.17127C5.05195 1.1715 5.94652 1.44901 6.29652 1.6356L6.29638 1.6356Z" fill="#787878"/>
<path d="M9.93892 11.2815C10.4627 9.63192 10.5162 7.72905 10.4604 7.37864C10.4322 7.20193 10.351 7.18726 10.2633 7.18726C10.0986 7.18726 9.87395 7.28272 9.72534 7.34576C9.65115 7.37739 9.59244 7.40219 9.54328 7.41607C8.4041 7.89544 6.97486 9.49045 6.20692 10.347C6.035 10.5388 5.89994 10.6893 5.80105 10.7913C4.4584 12.2062 3.5849 12.8855 3.02441 13.2004C4.24358 14.0833 5.74576 14.6055 7.37182 14.6055C7.37433 14.6055 7.3766 14.6054 7.37899 14.6054C8.46117 14.0934 9.30193 13.0008 9.93888 11.2816L9.93892 11.2815Z" fill="#787878"/>
<path d="M11.0479 5.10958C11.0844 5.37321 11.1058 5.76462 11.1245 6.14556L11.1305 6.26207C12.6855 6.29257 13.2952 7.41742 13.4968 7.78939L13.5149 7.82261C13.9792 8.67051 13.9279 9.99166 13.8333 10.822C14.4141 9.77812 14.7454 8.57896 14.7454 7.30296C14.7454 6.91553 14.7145 6.53549 14.6558 6.16457C13.6201 5.21242 11.9227 5.10718 11.2288 5.10718C11.1602 5.10718 11.0995 5.10809 11.0479 5.10957L11.0479 5.10958Z" fill="#787878"/>
<path d="M12.7906 8.10623C12.3878 7.40828 12.0347 7.19369 11.561 7.05886C11.5072 7.0435 11.4583 7.03564 11.4152 7.03564C11.1891 7.03564 11.1733 7.28915 11.1726 7.29985C11.0589 10.4218 10.8234 11.2272 10.6515 11.8153L10.6216 11.918C10.3805 12.7581 9.98356 13.5939 9.49805 14.2959C10.9154 13.8738 12.1533 13.0418 13.0701 11.9379C13.5414 10.1237 13.1249 8.6857 12.7905 8.10604L12.7906 8.10623Z" fill="#787878"/>
<path d="M10.5991 2.74048C10.6141 2.74174 10.6286 2.7431 10.6428 2.74458C11.1685 2.70328 11.5518 2.54626 11.7733 2.27786C12.013 1.98771 11.9794 1.65046 11.9788 1.64705C11.977 1.63226 11.9776 1.61724 11.9795 1.60268C11.1123 0.914171 10.0849 0.41628 8.96094 0.171631C9.68402 0.929551 10.1648 2.14336 10.2786 2.44991C10.3993 2.72321 10.4918 2.73118 10.5991 2.74051L10.5991 2.74048Z" fill="#787878"/>
</svg>
