<svg width="9" height="16" viewBox="0 0 9 16" fill="none" xmlns="http://www.w3.org/2000/svg">
<path d="M9 15.6715L9 14.4115L2.23529 8.25703C2.16894 8.19471 2.12989 8.09907 2.12989 8.00034C2.12989 7.89914 2.16894 7.80597 2.23529 7.7418L9 1.58919L9 0.328562C9 0.20145 8.93847 0.0866782 8.84003 0.0329949C8.74159 -0.0225396 8.62442 -0.00649629 8.53989 0.0700179L0.107 7.74303C0.0401236 7.8072 -3.45337e-07 7.90038 -3.4976e-07 8.00158C-3.54076e-07 8.1003 0.0401236 8.19595 0.107 8.25827L8.54042 15.93C8.62442 16.009 8.74212 16.0214 8.84057 15.9658C8.93847 15.9134 9 15.7974 9 15.6715Z" fill="#787878"/>
</svg>
