<svg width="13" height="13" viewBox="0 0 13 13" fill="none" xmlns="http://www.w3.org/2000/svg">
<path d="M11.1042 0H1.89583C1.39456 0.00493904 0.915209 0.206264 0.560737 0.560737C0.206264 0.915209 0.00493904 1.39456 0 1.89583L0 8.9375C0.019082 9.45586 0.20303 9.95462 0.525091 10.3612C0.847153 10.7679 1.29053 11.0611 1.79075 11.1984L7.83521 12.6181C8.06526 12.6777 8.30574 12.6848 8.53891 12.6389C8.77207 12.5931 8.99196 12.4955 9.18233 12.3533C9.36643 12.2025 9.51338 12.0115 9.61182 11.7949C9.71025 11.5783 9.75753 11.342 9.75 11.1042V5.85433C9.74913 5.35056 9.58357 4.86089 9.27856 4.45995C8.97355 4.059 8.54581 3.76878 8.06054 3.6335L2.197 2.01662C2.14557 2.0024 2.09745 1.97818 2.05538 1.94536C2.01331 1.91253 1.97812 1.87174 1.95181 1.82532C1.9255 1.77889 1.9086 1.72774 1.90206 1.67478C1.89552 1.62182 1.89948 1.5681 1.91371 1.51667C1.92794 1.46524 1.95215 1.41711 1.98498 1.37504C2.0178 1.33297 2.05859 1.29778 2.10502 1.27148C2.15144 1.24517 2.20259 1.22827 2.25555 1.22173C2.30851 1.21519 2.36224 1.21915 2.41367 1.23338L4.32792 1.7615H4.33442H11.1042C11.2119 1.7615 11.3152 1.8043 11.3914 1.88049C11.4676 1.95667 11.5104 2.06001 11.5104 2.16775C11.5104 2.27549 11.4676 2.37883 11.3914 2.45501C11.3152 2.5312 11.2119 2.574 11.1042 2.574H8.26854C8.23575 2.57393 8.20405 2.58576 8.17932 2.6073C8.15459 2.62884 8.13852 2.65862 8.13408 2.69111C8.12965 2.7236 8.13716 2.7566 8.15521 2.78397C8.17326 2.81135 8.20064 2.83124 8.23225 2.83996L8.27883 2.85296C8.8959 3.02434 9.44469 3.38275 9.84967 3.87888C9.86253 3.89425 9.8786 3.90663 9.89676 3.91514C9.91491 3.92366 9.9347 3.9281 9.95475 3.92817H11.1042C11.2119 3.92817 11.3152 3.97097 11.3914 4.04715C11.4676 4.12334 11.5104 4.22667 11.5104 4.33442C11.5104 4.44216 11.4676 4.54549 11.3914 4.62168C11.3152 4.69787 11.2119 4.74067 11.1042 4.74067H10.5419C10.5205 4.74053 10.4994 4.7455 10.4803 4.75515C10.4612 4.7648 10.4446 4.77886 10.432 4.79617C10.4194 4.81348 10.4111 4.83353 10.4078 4.85468C10.4045 4.87583 10.4063 4.89746 10.413 4.91779C10.5126 5.22042 10.5639 5.53683 10.5652 5.85542V9.61567C10.5652 9.65158 10.5795 9.68603 10.6049 9.71142C10.6303 9.73682 10.6647 9.75108 10.7006 9.75108H11.1042C11.607 9.75108 12.0892 9.55134 12.4447 9.19581C12.8003 8.84027 13 8.35806 13 7.85525V1.89692C13.0001 1.64786 12.9512 1.40122 12.856 1.17108C12.7608 0.940942 12.6212 0.731819 12.4451 0.55566C12.269 0.379501 12.06 0.239758 11.8299 0.144415C11.5998 0.049073 11.3532 -4.06621e-08 11.1042 0ZM8.39583 8.125C8.39583 8.33926 8.3323 8.54871 8.21326 8.72687C8.09422 8.90502 7.92503 9.04387 7.72707 9.12587C7.52912 9.20786 7.3113 9.22932 7.10115 9.18752C6.89101 9.14572 6.69798 9.04254 6.54647 8.89103C6.39496 8.73953 6.29178 8.54649 6.24998 8.33635C6.20818 8.1262 6.22964 7.90838 6.31163 7.71043C6.39363 7.51247 6.53248 7.34328 6.71063 7.22424C6.88879 7.1052 7.09824 7.04167 7.3125 7.04167C7.59982 7.04167 7.87537 7.1558 8.07853 7.35897C8.2817 7.56213 8.39583 7.83768 8.39583 8.125Z" fill="#39AED0"/>
</svg>
